<svg width="1440" height="321" viewBox="0 0 1440 321" fill="none" xmlns="http://www.w3.org/2000/svg">
<g clip-path="url(#clip0)">
<rect width="1440" height="321" fill="black"/>
<g opacity="0.8" filter="url(#filter0_f)">
<g style="mix-blend-mode:lighten">
<circle cx="1183.09" cy="405.432" r="275.598" fill="url(#paint0_radial)"/>
</g>
<g style="mix-blend-mode:lighten">
<circle cx="1028.02" cy="39.0236" r="191.024" fill="url(#paint1_radial)"/>
</g>
<g style="mix-blend-mode:lighten">
<circle cx="888.976" cy="272.976" r="142.976" fill="url(#paint2_radial)"/>
</g>
<g style="mix-blend-mode:lighten">
<rect x="1056.44" y="-121.072" width="428.531" height="373.571" fill="url(#paint3_radial)"/>
</g>
<g style="mix-blend-mode:lighten">
<rect x="-60" width="428.531" height="373.571" fill="url(#paint4_radial)"/>
</g>
<g style="mix-blend-mode:lighten">
<circle cx="816.976" cy="229.976" r="142.976" fill="url(#paint5_radial)"/>
</g>
<g style="mix-blend-mode:lighten">
<circle cx="1170.98" cy="169.976" r="142.976" fill="url(#paint6_radial)"/>
</g>
<g style="mix-blend-mode:lighten">
<rect x="239.488" y="-26" width="495.557" height="432" fill="url(#paint7_radial)"/>
</g>
<g style="mix-blend-mode:lighten">
<circle cx="680.84" cy="36" r="338" fill="url(#paint8_radial)"/>
</g>
</g>
<g opacity="0.6">
<g opacity="0.39">
<path d="M-212.807 131.937C-228.249 131.937 -240.381 126.746 -249.205 116.364C-256.514 108.059 -260.901 86.1698 -262.364 77.739C-262.722 75.6775 -261.78 73.6381 -260.017 72.5114L-16.184 -83.3256C-14.6598 -84.2997 -14.317 -86.3805 -15.4481 -87.7921C-16.401 -88.9811 -18.0864 -89.2821 -19.3918 -88.4963L-46.7193 -72.0462C-48.3785 -71.0473 -50.2786 -70.5196 -52.2153 -70.5196L-257.622 -70.5196C-260.55 -70.5196 -262.648 -72.852 -262.248 -75.7527C-260.823 -86.0978 -257.105 -108.849 -251.096 -116.768C-243.217 -127.465 -231.558 -132.814 -216.116 -132.814L33.4663 -132.814C45.126 -132.814 55.2102 -127.78 63.7187 -117.712C70.2392 -110.238 74.2611 -94.2641 75.7847 -87.2075C76.2389 -85.1036 75.2991 -82.9791 73.4847 -81.8213L-183.655 82.2598C-185.306 83.3132 -185.615 85.5971 -184.304 87.0516C-183.288 88.1783 -181.617 88.4269 -180.317 87.6446L-152.948 71.1694C-151.289 70.1705 -149.388 69.6428 -147.452 69.6428L29.6847 69.6428C45.126 69.6428 56.7858 74.9913 64.6641 85.6883C70.5494 93.4444 74.2365 115.422 75.7252 126.045C76.1656 129.187 73.7089 131.937 70.5358 131.937L-212.807 131.937Z" fill="url(#paint9_radial)" fill-opacity="0.28"/>
<path d="M-249.517 116.634C-240.605 127.12 -228.351 132.35 -212.807 132.35L70.5358 132.35C73.9526 132.35 76.6106 129.386 76.1344 125.988C75.3892 120.671 74.0932 112.506 72.2454 104.697C71.3216 100.792 70.2582 96.9691 69.0545 93.6321C67.8535 90.3025 66.5033 87.4295 64.995 85.4409C57.0255 74.6216 45.2319 69.2296 29.6847 69.2296L-147.452 69.2296C-149.464 69.2296 -151.437 69.7778 -153.161 70.8154L-180.53 87.2907C-181.66 87.9709 -183.114 87.7547 -183.997 86.775C-185.137 85.5102 -184.868 83.5241 -183.433 82.6081L73.7069 -81.473C75.6601 -82.7193 76.6809 -85.0141 76.1885 -87.2947C75.4249 -90.8314 74.0345 -96.6068 72.016 -102.438C70.0019 -108.257 67.346 -114.182 64.0315 -117.982C55.4565 -128.127 45.2631 -133.227 33.4663 -133.227L-216.116 -133.227C-231.664 -133.227 -243.457 -127.835 -251.427 -117.016C-252.967 -114.985 -254.342 -112.032 -255.562 -108.612C-256.785 -105.184 -257.862 -101.258 -258.793 -97.2639C-260.656 -89.2753 -261.944 -80.9871 -262.658 -75.8091C-263.093 -72.6522 -260.793 -70.1064 -257.622 -70.1064L-52.2153 -70.1064C-50.2035 -70.1064 -48.2298 -70.6547 -46.5062 -71.6922L-19.1787 -88.1423C-18.0506 -88.8214 -16.594 -88.5613 -15.7706 -87.5337C-14.793 -86.3138 -15.0893 -84.5156 -16.4065 -83.6737L-260.24 72.1633C-262.138 73.3762 -263.158 75.5778 -262.771 77.8097C-262.038 82.032 -260.573 89.6288 -258.374 97.2138C-256.181 104.776 -253.238 112.405 -249.517 116.634Z" stroke="url(#paint10_radial)" stroke-opacity="0.44" stroke-width="0.8263" stroke-linejoin="round"/>
</g>
<g opacity="0.39">
<path d="M-246.507 168.937C-266.3 168.937 -281.851 162.282 -293.161 148.973C-302.821 137.997 -308.498 108.506 -310.192 98.5023C-310.541 96.4395 -309.599 94.4057 -307.837 93.2789L5.52246 -107.016C7.47608 -108.265 7.9155 -110.932 6.46573 -112.742C5.24433 -114.266 3.08359 -114.652 1.41007 -113.644L-34.3318 -92.1266C-35.9912 -91.1276 -37.8915 -90.5997 -39.8284 -90.5997L-305.441 -90.5997C-308.369 -90.5997 -310.468 -92.9271 -310.08 -95.8294C-308.42 -108.263 -303.588 -139.339 -295.585 -149.888C-285.486 -163.601 -270.541 -170.457 -250.748 -170.457L69.1633 -170.457C84.1087 -170.457 97.0344 -164.004 107.94 -151.098C116.616 -141.152 121.841 -119.465 123.615 -111.011C124.058 -108.905 123.118 -106.785 121.303 -105.627L-209.14 105.254C-211.256 106.605 -211.653 109.532 -209.972 111.396C-208.67 112.841 -206.527 113.16 -204.861 112.157L-169.065 90.6066C-167.406 89.6076 -165.506 89.0797 -163.569 89.0797L64.3162 89.0797C84.1087 89.0797 99.0541 95.9362 109.152 109.649C117.018 120.016 121.82 150.202 123.559 163.044C123.985 166.188 121.527 168.937 118.354 168.937L-246.507 168.937Z" fill="url(#paint11_radial)" fill-opacity="0.28"/>
<path d="M-293.474 149.243C-282.074 162.656 -266.402 169.35 -246.507 169.35L118.354 169.35C121.771 169.35 124.429 166.387 123.969 162.988C123.098 156.562 121.461 145.791 119.056 135.326C117.853 130.093 116.457 124.93 114.867 120.422C113.279 115.922 111.488 112.045 109.483 109.402C99.2938 95.5665 84.2146 88.6666 64.3162 88.6666L-163.569 88.6666C-165.581 88.6666 -167.555 89.2149 -169.279 90.2526L-205.074 111.803C-206.571 112.704 -208.496 112.417 -209.665 111.12C-211.175 109.445 -210.819 106.815 -208.918 105.602L121.526 -105.279C123.478 -106.525 124.499 -108.814 124.02 -111.096C123.131 -115.331 121.377 -122.884 118.757 -130.627C116.143 -138.356 112.648 -146.328 108.255 -151.366C97.282 -164.351 84.2465 -170.87 69.1633 -170.87L-250.748 -170.87C-270.647 -170.87 -285.726 -163.97 -295.916 -150.135C-297.955 -147.446 -299.774 -143.478 -301.383 -138.876C-302.994 -134.265 -304.404 -128.986 -305.614 -123.657C-308.034 -112.998 -309.659 -102.106 -310.49 -95.8841C-310.911 -92.7265 -308.612 -90.1866 -305.441 -90.1866L-39.8284 -90.1866C-37.8164 -90.1866 -35.8425 -90.7349 -34.1187 -91.7727L1.62317 -113.29C3.11942 -114.191 5.05127 -113.846 6.14331 -112.483C7.43952 -110.866 7.04663 -108.481 5.29996 -107.365L-308.059 92.9308C-309.956 94.1436 -310.977 96.339 -310.599 98.5713C-309.751 103.58 -307.906 113.47 -305.061 123.486C-302.224 133.477 -298.371 143.677 -293.474 149.243Z" stroke="url(#paint12_radial)" stroke-opacity="0.44" stroke-width="0.8263" stroke-linejoin="round"/>
</g>
<g opacity="0.39">
<path d="M-281.028 208.179C-305.278 208.179 -324.331 200.015 -338.188 183.687C-350.276 169.935 -357.273 132.49 -359.18 121.018C-359.523 118.956 -358.585 116.908 -356.824 115.781L27.7621 -130.364C30.155 -131.895 30.6934 -135.163 28.9184 -137.381C27.4203 -139.253 24.7676 -139.727 22.714 -138.489L-21.6397 -111.752C-23.3003 -110.751 -25.2025 -110.222 -27.1415 -110.222L-354.425 -110.222C-357.353 -110.222 -359.451 -112.565 -359.072 -115.469C-357.196 -129.844 -351.225 -169.67 -341.158 -182.957C-328.785 -199.78 -310.474 -208.191 -286.224 -208.191L105.732 -208.191C124.043 -208.191 139.88 -200.275 153.242 -184.441C164.15 -171.919 170.606 -144.228 172.609 -134.48C173.042 -132.374 172.105 -130.249 170.292 -129.091L-235.249 130.055C-237.841 131.711 -238.327 135.297 -236.269 137.584C-234.672 139.358 -232.041 139.749 -229.996 138.517L-185.577 111.74C-183.916 110.739 -182.014 110.21 -180.075 110.21L99.7932 110.21C124.043 110.21 142.354 118.621 154.726 135.444C164.651 148.542 170.595 187.43 172.559 202.304C172.974 205.449 170.513 208.179 167.34 208.179L-281.028 208.179Z" fill="url(#paint13_radial)" fill-opacity="0.28"/>
<path d="M-338.501 183.957C-324.555 200.389 -305.38 208.592 -281.028 208.592L167.34 208.592C170.755 208.592 173.417 205.65 172.968 202.25C171.986 194.808 170.007 181.353 167.031 168.118C165.543 161.5 163.804 154.93 161.814 149.19C159.827 143.459 157.578 138.525 155.058 135.198C142.594 118.252 124.149 109.797 99.7932 109.797L-180.075 109.797C-182.089 109.797 -184.065 110.346 -185.79 111.386L-230.21 138.163C-232.084 139.293 -234.498 138.934 -235.962 137.307C-237.849 135.211 -237.404 131.922 -235.027 130.403L170.515 -128.743C172.466 -129.99 173.482 -132.284 173.014 -134.564C172.011 -139.446 169.892 -148.823 166.657 -158.551C163.427 -168.264 159.065 -178.384 153.555 -184.711C140.126 -200.621 124.18 -208.604 105.732 -208.604L-286.224 -208.604C-310.58 -208.604 -329.025 -200.149 -341.489 -183.204C-344.045 -179.829 -346.322 -174.8 -348.331 -168.962C-350.342 -163.116 -352.095 -156.426 -353.59 -149.711C-356.58 -136.279 -358.543 -122.715 -359.482 -115.522C-359.893 -112.367 -357.598 -109.809 -354.425 -109.809L-27.1415 -109.809C-25.1273 -109.809 -23.1513 -110.358 -21.4264 -111.398L22.9273 -138.135C24.8035 -139.266 27.2271 -138.833 28.5958 -137.123C30.2175 -135.096 29.7256 -132.111 27.5393 -130.712L-357.047 115.433C-358.944 116.647 -359.958 118.856 -359.588 121.086C-358.633 126.828 -356.404 139.074 -352.9 151.609C-351.148 157.876 -349.075 164.222 -346.68 169.868C-344.288 175.507 -341.564 180.471 -338.501 183.957Z" stroke="url(#paint14_radial)" stroke-opacity="0.44" stroke-width="0.8263" stroke-linejoin="round"/>
</g>
<g opacity="0.39">
<path d="M-318.839 249.666C-347.97 249.666 -370.86 239.855 -387.506 220.234C-402.288 203.412 -410.733 157.089 -412.842 144.215C-413.179 142.152 -412.237 140.133 -410.477 139.006L52.5077 -157.406C55.1726 -159.112 55.7722 -162.751 53.7957 -165.222L53.2753 -165.873C51.6065 -167.959 48.6507 -168.487 46.3629 -167.107L-7.74285 -134.481C-9.40374 -133.48 -11.3064 -132.951 -13.2459 -132.951L-408.077 -132.951C-411.005 -132.951 -413.107 -135.265 -412.735 -138.169C-410.652 -154.425 -403.431 -204.04 -391.073 -220.355C-376.21 -240.571 -354.213 -250.679 -325.081 -250.679L145.781 -250.679C167.778 -250.679 186.803 -241.165 202.855 -222.138C216.236 -206.773 224.04 -172.4 226.267 -161.388C226.693 -159.281 225.753 -157.169 223.941 -156.011L-264.497 156.202C-267.269 157.974 -267.789 161.81 -265.588 164.256L-264.708 165.234C-263 167.133 -260.184 167.551 -257.996 166.232L-203.662 133.469C-202.001 132.467 -200.098 131.938 -198.159 131.938L138.646 131.938C167.778 131.938 189.775 142.046 204.638 162.262C216.836 178.363 224.028 226.898 226.216 243.792C226.623 246.939 224.161 249.666 220.989 249.666L-318.839 249.666Z" fill="url(#paint15_radial)" fill-opacity="0.28"/>
<path d="M-387.819 220.504C-371.083 240.229 -348.072 250.079 -318.839 250.079L220.989 250.079C224.403 250.079 227.066 247.14 226.625 243.739C225.531 235.287 223.184 218.916 219.584 202.641C217.784 194.503 215.669 186.383 213.239 179.284C210.811 172.195 208.059 166.094 204.97 162.015C190.016 141.676 167.884 131.525 138.646 131.525L-198.159 131.525C-200.173 131.525 -202.15 132.074 -203.875 133.115L-258.209 165.879C-260.227 167.095 -262.825 166.709 -264.401 164.957L-265.281 163.98C-267.311 161.724 -266.832 158.185 -264.275 156.55L224.164 -155.663C226.114 -156.909 227.133 -159.189 226.672 -161.47C225.557 -166.984 223.045 -178.348 219.136 -190.26C215.233 -202.156 209.916 -214.658 203.169 -222.407C187.05 -241.512 167.916 -251.092 145.781 -251.092L-325.081 -251.092C-354.319 -251.092 -376.45 -240.94 -391.404 -220.603C-394.534 -216.47 -397.319 -210.26 -399.77 -203.05C-402.224 -195.83 -404.354 -187.574 -406.161 -179.329C-409.775 -162.836 -412.102 -146.355 -413.144 -138.221C-413.549 -135.062 -411.246 -132.537 -408.077 -132.537L-13.2459 -132.537C-11.2312 -132.537 -9.25479 -133.087 -7.52951 -134.128L46.5762 -166.754C48.6867 -168.026 51.4133 -167.539 52.9527 -165.615L53.473 -164.964C55.2963 -162.685 54.7432 -159.328 52.2849 -157.754L-410.7 138.658C-412.594 139.87 -413.615 142.05 -413.249 144.282C-412.194 150.725 -409.553 165.541 -405.324 180.854C-403.21 188.51 -400.698 196.298 -397.785 203.229C-394.876 210.154 -391.556 216.249 -387.819 220.504Z" stroke="url(#paint16_radial)" stroke-opacity="0.44" stroke-width="0.8263" stroke-linejoin="round"/>
</g>
<g opacity="0.39">
<path d="M-360.069 295.639C-394.488 295.639 -421.532 284.049 -441.199 260.869C-458.902 240.725 -468.912 184.772 -471.231 170.463C-471.565 168.399 -470.624 166.371 -468.864 165.244L79.5778 -185.841C82.2429 -187.548 82.8427 -191.187 80.8659 -193.658L79.0512 -195.926C77.3824 -198.012 74.4268 -198.54 72.1391 -197.16L7.02704 -157.902C5.36625 -156.9 3.46372 -156.371 1.52442 -156.371L-466.464 -156.371C-469.392 -156.371 -471.491 -158.711 -471.124 -161.616C-468.826 -179.792 -460.256 -240.036 -445.414 -259.628C-427.853 -283.51 -401.864 -295.451 -367.445 -295.451L188.875 -295.451C214.865 -295.451 237.342 -284.212 256.308 -261.735C272.377 -243.285 281.639 -201.637 284.092 -189.349C284.514 -187.24 283.576 -185.119 281.764 -183.961L-296.825 185.838C-299.598 187.61 -300.117 191.446 -297.916 193.892L-295.58 196.487C-293.872 198.386 -291.056 198.805 -288.868 197.486L-223.528 158.089C-221.867 157.088 -219.965 156.559 -218.025 156.559L180.446 156.559C214.865 156.559 240.854 168.5 258.415 192.382C273.092 211.757 281.636 270.877 284.046 289.769C284.447 292.916 281.984 295.639 278.811 295.639L-360.069 295.639Z" fill="url(#paint17_radial)" fill-opacity="0.28"/>
<path d="M-441.512 261.139C-421.755 284.422 -394.59 296.052 -360.069 296.052L278.811 296.052C282.226 296.052 284.889 293.118 284.456 289.717C283.25 280.266 280.51 260.749 276.234 241.169C274.096 231.378 271.573 221.565 268.664 212.983C265.757 204.409 262.454 197.031 258.744 192.133C241.093 168.13 214.97 156.146 180.446 156.146L-218.025 156.146C-220.04 156.146 -222.016 156.695 -223.741 157.736L-289.082 197.132C-291.1 198.349 -293.697 197.962 -295.273 196.211L-297.609 193.616C-299.64 191.359 -299.16 187.82 -296.603 186.186L281.986 -183.613C283.937 -184.859 284.953 -187.149 284.498 -189.429C283.269 -195.582 280.337 -209.083 275.699 -223.359C271.067 -237.618 264.714 -252.709 256.622 -262.002C237.59 -284.558 215.003 -295.864 188.875 -295.864L-367.445 -295.864C-401.969 -295.864 -428.093 -283.88 -445.744 -259.875C-449.496 -254.923 -452.831 -247.433 -455.761 -238.736C-458.694 -230.029 -461.233 -220.077 -463.377 -210.178C-467.666 -190.379 -470.384 -170.761 -471.534 -161.668C-471.933 -158.512 -469.636 -155.958 -466.464 -155.958L1.52442 -155.958C3.53892 -155.958 5.5152 -156.508 7.24036 -157.548L72.3524 -196.807C74.4628 -198.079 77.1892 -197.592 78.7286 -195.668L80.5432 -193.4C82.3668 -191.12 81.8135 -187.763 79.3551 -186.189L-469.086 164.896C-470.981 166.109 -472 168.297 -471.639 170.529C-470.478 177.69 -467.393 195.272 -462.383 213.587C-459.877 222.744 -456.889 232.092 -453.415 240.416C-449.945 248.733 -445.98 256.053 -441.512 261.139Z" stroke="url(#paint18_radial)" stroke-opacity="0.44" stroke-width="0.8263" stroke-linejoin="round"/>
</g>
<g opacity="0.39">
<path d="M-396.889 336C-436.061 336 -466.84 322.809 -489.224 296.428C-509.372 273.501 -520.765 209.821 -523.404 193.534C-523.784 191.186 -522.713 188.878 -520.709 187.595L103.483 -211.982C106.516 -213.924 107.199 -218.066 104.949 -220.878L102.884 -223.46C100.984 -225.834 97.6205 -226.435 95.0168 -224.865L20.9114 -180.183C19.0212 -179.044 16.8559 -178.442 14.6487 -178.442L-517.979 -178.442C-521.311 -178.442 -523.7 -181.105 -523.282 -184.411C-520.667 -205.097 -510.913 -273.662 -494.021 -295.96C-474.035 -323.141 -444.455 -336.731 -405.283 -336.731L227.876 -336.731C257.456 -336.731 283.038 -323.94 304.623 -298.358C322.912 -277.359 333.453 -229.959 336.245 -215.974C336.724 -213.574 335.657 -211.16 333.595 -209.842L-324.909 211.033C-328.064 213.05 -328.656 217.416 -326.151 220.2L-323.492 223.154C-321.547 225.314 -318.343 225.791 -315.853 224.29L-241.488 179.452C-239.598 178.313 -237.432 177.71 -235.225 177.71L218.283 177.71C257.456 177.71 287.035 191.301 307.021 218.482C323.726 240.532 333.449 307.819 336.192 329.319C336.649 332.901 333.845 336 330.234 336L-396.889 336Z" fill="url(#paint19_radial)" fill-opacity="0.28"/>
<path d="M-489.58 296.735C-467.094 323.234 -436.177 336.47 -396.889 336.47L330.234 336.47C334.12 336.47 337.152 333.131 336.658 329.26C335.286 318.504 332.168 296.291 327.302 274.006C324.869 262.864 321.997 251.696 318.686 241.928C315.378 232.171 311.62 223.775 307.398 218.201C287.308 190.88 257.576 177.24 218.283 177.24L-235.225 177.24C-237.518 177.24 -239.767 177.866 -241.731 179.05L-316.096 223.887C-318.393 225.272 -321.349 224.832 -323.143 222.839L-325.801 219.885C-328.112 217.318 -327.566 213.29 -324.656 211.429L333.848 -209.445C336.068 -210.865 337.225 -213.47 336.706 -216.066C335.308 -223.068 331.971 -238.434 326.692 -254.681C321.42 -270.91 314.19 -288.087 304.98 -298.664C283.319 -324.334 257.612 -337.201 227.876 -337.201L-405.283 -337.201C-444.577 -337.201 -474.308 -323.561 -494.398 -296.24C-498.667 -290.604 -502.463 -282.08 -505.797 -272.182C-509.136 -262.273 -512.025 -250.947 -514.465 -239.68C-519.346 -217.147 -522.44 -194.819 -523.748 -184.47C-524.202 -180.878 -521.589 -177.971 -517.979 -177.971L14.6487 -177.971C16.9415 -177.971 19.1907 -178.597 21.1542 -179.781L95.2596 -224.462C97.6614 -225.91 100.764 -225.356 102.516 -223.166L104.582 -220.584C106.657 -217.99 106.027 -214.169 103.229 -212.378L-520.963 187.199C-523.12 188.58 -524.279 191.07 -523.868 193.61C-522.547 201.76 -519.036 221.77 -513.333 242.615C-510.482 253.037 -507.08 263.676 -503.127 273.15C-499.178 282.615 -494.665 290.947 -489.58 296.735Z" stroke="url(#paint20_radial)" stroke-opacity="0.44" stroke-width="0.940428" stroke-linejoin="round"/>
</g>
<g opacity="0.39">
<path d="M1653.81 131.668C1669.25 131.668 1681.38 126.477 1690.2 116.095C1697.51 107.791 1701.9 85.901 1703.36 77.4702C1703.72 75.4087 1702.78 73.3693 1701.02 72.2426L1457.18 -83.5944C1455.66 -84.5685 1455.32 -86.6493 1456.45 -88.0609C1457.4 -89.2499 1459.09 -89.5509 1460.39 -88.7651L1487.72 -72.315C1489.38 -71.3161 1491.28 -70.7884 1493.22 -70.7884L1698.62 -70.7884C1701.55 -70.7884 1703.65 -73.1208 1703.25 -76.0215C1701.82 -86.3666 1698.11 -109.117 1692.1 -117.037C1684.22 -127.734 1672.56 -133.083 1657.12 -133.083L1407.53 -133.083C1395.87 -133.083 1385.79 -128.049 1377.28 -117.981C1370.76 -110.507 1366.74 -94.5329 1365.22 -87.4763C1364.76 -85.3724 1365.7 -83.2479 1367.52 -82.0901L1624.66 81.991C1626.31 83.0444 1626.62 85.3283 1625.3 86.7828C1624.29 87.9095 1622.62 88.1581 1621.32 87.3758L1593.95 70.9006C1592.29 69.9017 1590.39 69.374 1588.45 69.374L1411.32 69.374C1395.87 69.374 1384.21 74.7225 1376.34 85.4195C1370.45 93.1756 1366.76 115.153 1365.27 125.776C1364.83 128.919 1367.29 131.668 1370.46 131.668L1653.81 131.668Z" fill="url(#paint21_radial)" fill-opacity="0.28"/>
<path d="M1690.52 116.365C1681.6 126.851 1669.35 132.081 1653.81 132.081L1370.46 132.081C1367.05 132.081 1364.39 129.117 1364.87 125.719C1365.61 120.402 1366.91 112.237 1368.75 104.428C1369.68 100.523 1370.74 96.7003 1371.95 93.3633C1373.15 90.0337 1374.5 87.1607 1376.01 85.1721C1383.97 74.3528 1395.77 68.9608 1411.32 68.9608L1588.45 68.9608C1590.46 68.9608 1592.44 69.509 1594.16 70.5466L1621.53 87.0219C1622.66 87.7021 1624.11 87.4859 1625 86.5062C1626.14 85.2414 1625.87 83.2553 1624.43 82.3393L1367.29 -81.7418C1365.34 -82.9881 1364.32 -85.2829 1364.81 -87.5635C1365.58 -91.1002 1366.97 -96.8756 1368.98 -102.707C1371 -108.526 1373.65 -114.451 1376.97 -118.251C1385.54 -128.396 1395.74 -133.496 1407.53 -133.496L1657.12 -133.496C1672.66 -133.496 1684.46 -128.104 1692.43 -117.284C1693.97 -115.254 1695.34 -112.301 1696.56 -108.881C1697.79 -105.453 1698.86 -101.527 1699.79 -97.5327C1701.66 -89.5441 1702.94 -81.2559 1703.66 -76.0779C1704.09 -72.921 1701.79 -70.3752 1698.62 -70.3752L1493.22 -70.3752C1491.2 -70.3752 1489.23 -70.9235 1487.51 -71.961L1460.18 -88.4111C1459.05 -89.0902 1457.59 -88.8301 1456.77 -87.8025C1455.79 -86.5826 1456.09 -84.7844 1457.41 -83.9425L1701.24 71.8945C1703.14 73.1074 1704.16 75.309 1703.77 77.5409C1703.04 81.7632 1701.57 89.36 1699.37 96.945C1697.18 104.507 1694.24 112.136 1690.52 116.365Z" stroke="url(#paint22_radial)" stroke-opacity="0.44" stroke-width="0.8263" stroke-linejoin="round"/>
</g>
<g opacity="0.39">
<path d="M1687.51 168.668C1707.3 168.668 1722.85 162.014 1734.16 148.704C1743.82 137.728 1749.5 108.237 1751.19 98.2335C1751.54 96.1707 1750.6 94.1369 1748.84 93.0101L1435.48 -107.285C1433.52 -108.534 1433.08 -111.201 1434.53 -113.01C1435.76 -114.535 1437.92 -114.921 1439.59 -113.913L1475.33 -92.3954C1476.99 -91.3964 1478.89 -90.8685 1480.83 -90.8685L1746.44 -90.8685C1749.37 -90.8685 1751.47 -93.1959 1751.08 -96.0982C1749.42 -108.532 1744.59 -139.608 1736.58 -150.157C1726.49 -163.87 1711.54 -170.726 1691.75 -170.726L1371.84 -170.726C1356.89 -170.726 1343.97 -164.273 1333.06 -151.367C1324.38 -141.421 1319.16 -119.734 1317.38 -111.28C1316.94 -109.174 1317.88 -107.054 1319.7 -105.896L1650.14 104.985C1652.26 106.336 1652.65 109.263 1650.97 111.128C1649.67 112.572 1647.53 112.891 1645.86 111.888L1610.07 90.3378C1608.41 89.3388 1606.51 88.8109 1604.57 88.8109L1376.68 88.8109C1356.89 88.8109 1341.95 95.6674 1331.85 109.38C1323.98 119.747 1319.18 149.933 1317.44 162.775C1317.02 165.919 1319.47 168.668 1322.65 168.668L1687.51 168.668Z" fill="url(#paint23_radial)" fill-opacity="0.28"/>
<path d="M1734.47 148.974C1723.07 162.387 1707.4 169.082 1687.51 169.082L1322.65 169.082C1319.23 169.082 1316.57 166.118 1317.03 162.72C1317.9 156.293 1319.54 145.522 1321.94 135.057C1323.15 129.824 1324.54 124.662 1326.13 120.153C1327.72 115.653 1329.51 111.776 1331.52 109.133C1341.71 95.2977 1356.79 88.3978 1376.68 88.3978L1604.57 88.3978C1606.58 88.3978 1608.55 88.9461 1610.28 89.9838L1646.07 111.534C1647.57 112.435 1649.5 112.149 1650.67 110.851C1652.17 109.176 1651.82 106.547 1649.92 105.334L1319.47 -105.548C1317.52 -106.794 1316.5 -109.083 1316.98 -111.365C1317.87 -115.6 1319.62 -123.153 1322.24 -130.896C1324.86 -138.625 1328.35 -146.597 1332.75 -151.635C1343.72 -164.619 1356.75 -171.139 1371.84 -171.139L1691.75 -171.139C1711.65 -171.139 1726.73 -164.239 1736.92 -150.404C1738.96 -147.715 1740.77 -143.747 1742.38 -139.144C1743.99 -134.533 1745.4 -129.255 1746.61 -123.926C1749.03 -113.266 1750.66 -102.375 1751.49 -96.1529C1751.91 -92.9953 1749.61 -90.4554 1746.44 -90.4554L1480.83 -90.4554C1478.82 -90.4554 1476.84 -91.0037 1475.12 -92.0415L1439.38 -113.559C1437.88 -114.46 1435.95 -114.115 1434.86 -112.752C1433.56 -111.134 1433.95 -108.75 1435.7 -107.633L1749.06 92.662C1750.96 93.8748 1751.98 96.0702 1751.6 98.3025C1750.75 103.311 1748.91 113.201 1746.06 123.217C1743.22 133.208 1739.37 143.408 1734.47 148.974Z" stroke="url(#paint24_radial)" stroke-opacity="0.44" stroke-width="0.8263" stroke-linejoin="round"/>
</g>
<g opacity="0.39">
<path d="M1722.03 207.911C1746.28 207.911 1765.33 199.746 1779.19 183.418C1791.28 169.666 1798.27 132.221 1800.18 120.749C1800.52 118.687 1799.59 116.639 1797.82 115.512L1413.24 -130.633C1410.85 -132.164 1410.31 -135.432 1412.08 -137.65C1413.58 -139.522 1416.23 -139.996 1418.29 -138.758L1462.64 -112.021C1464.3 -111.02 1466.2 -110.491 1468.14 -110.491L1795.43 -110.491C1798.35 -110.491 1800.45 -112.834 1800.07 -115.738C1798.2 -130.112 1792.23 -169.939 1782.16 -183.226C1769.79 -200.049 1751.47 -208.46 1727.22 -208.46L1335.27 -208.46C1316.96 -208.46 1301.12 -200.543 1287.76 -184.71C1276.85 -172.188 1270.39 -144.497 1268.39 -134.749C1267.96 -132.643 1268.9 -130.518 1270.71 -129.36L1676.25 129.786C1678.84 131.442 1679.33 135.029 1677.27 137.315C1675.67 139.089 1673.04 139.48 1671 138.248L1626.58 111.471C1624.92 110.47 1623.01 109.941 1621.08 109.941L1341.21 109.941C1316.96 109.941 1298.65 118.352 1286.27 135.176C1276.35 148.274 1270.41 187.161 1268.44 202.035C1268.03 205.18 1270.49 207.911 1273.66 207.911L1722.03 207.911Z" fill="url(#paint25_radial)" fill-opacity="0.28"/>
<path d="M1779.5 183.688C1765.55 200.12 1746.38 208.324 1722.03 208.324L1273.66 208.324C1270.24 208.324 1267.58 205.381 1268.03 201.981C1269.01 194.539 1270.99 181.085 1273.97 167.849C1275.46 161.231 1277.2 154.661 1279.19 148.921C1281.17 143.19 1283.42 138.256 1285.94 134.929C1298.41 117.983 1316.85 109.528 1341.21 109.528L1621.08 109.528C1623.09 109.528 1625.07 110.077 1626.79 111.117L1671.21 137.894C1673.08 139.024 1675.5 138.665 1676.96 137.038C1678.85 134.942 1678.4 131.653 1676.03 130.134L1270.49 -129.012C1268.53 -130.259 1267.52 -132.552 1267.99 -134.832C1268.99 -139.714 1271.11 -149.092 1274.34 -158.82C1277.57 -168.533 1281.93 -178.653 1287.45 -184.98C1300.87 -200.89 1316.82 -208.873 1335.27 -208.873L1727.22 -208.873C1751.58 -208.873 1770.03 -200.418 1782.49 -183.472C1785.05 -180.098 1787.32 -175.069 1789.33 -169.231C1791.34 -163.385 1793.1 -156.695 1794.59 -149.98C1797.58 -136.548 1799.54 -122.984 1800.48 -115.791C1800.89 -112.635 1798.6 -110.077 1795.43 -110.077L1468.14 -110.077C1466.13 -110.077 1464.15 -110.627 1462.43 -111.667L1418.07 -138.404C1416.2 -139.535 1413.77 -139.102 1412.4 -137.392C1410.78 -135.365 1411.27 -132.38 1413.46 -130.981L1798.05 115.164C1799.94 116.378 1800.96 118.587 1800.59 120.817C1799.63 126.56 1797.4 138.805 1793.9 151.34C1792.15 157.607 1790.08 163.954 1787.68 169.599C1785.29 175.238 1782.56 180.202 1779.5 183.688Z" stroke="url(#paint26_radial)" stroke-opacity="0.44" stroke-width="0.8263" stroke-linejoin="round"/>
</g>
<g opacity="0.39">
<path d="M1759.84 249.397C1788.97 249.397 1811.86 239.586 1828.51 219.965C1843.29 203.143 1851.73 156.82 1853.84 143.946C1854.18 141.883 1853.24 139.864 1851.48 138.737L1388.49 -157.675C1385.83 -159.381 1385.23 -163.02 1387.2 -165.491L1387.72 -166.142C1389.39 -168.228 1392.35 -168.756 1394.64 -167.376L1448.74 -134.75C1450.4 -133.749 1452.31 -133.219 1454.25 -133.219L1849.08 -133.219C1852 -133.219 1854.11 -135.534 1853.73 -138.438C1851.65 -154.694 1844.43 -204.309 1832.07 -220.624C1817.21 -240.839 1795.21 -250.947 1766.08 -250.947L1295.22 -250.947C1273.22 -250.947 1254.2 -241.434 1238.14 -222.407C1224.76 -207.042 1216.96 -172.669 1214.73 -161.657C1214.31 -159.549 1215.25 -157.438 1217.06 -156.28L1705.5 155.934C1708.27 157.706 1708.79 161.542 1706.59 163.987L1705.71 164.965C1704 166.864 1701.18 167.283 1699 165.964L1644.66 133.2C1643 132.198 1641.1 131.669 1639.16 131.669L1302.35 131.669C1273.22 131.669 1251.22 141.777 1236.36 161.993C1224.16 178.095 1216.97 226.63 1214.78 243.523C1214.38 246.67 1216.84 249.397 1220.01 249.397L1759.84 249.397Z" fill="url(#paint27_radial)" fill-opacity="0.28"/>
<path d="M1828.82 220.235C1812.08 239.96 1789.07 249.81 1759.84 249.81L1220.01 249.81C1216.6 249.81 1213.93 246.871 1214.37 243.47C1215.47 235.018 1217.82 218.647 1221.42 202.372C1223.22 194.234 1225.33 186.114 1227.76 179.015C1230.19 171.926 1232.94 165.825 1236.03 161.746C1250.98 141.408 1273.12 131.256 1302.35 131.256L1639.16 131.256C1641.17 131.256 1643.15 131.806 1644.87 132.846L1699.21 165.61C1701.23 166.827 1703.82 166.44 1705.4 164.689L1706.28 163.711C1708.31 161.455 1707.83 157.916 1705.27 156.282L1216.84 -155.931C1214.89 -157.178 1213.87 -159.458 1214.33 -161.739C1215.44 -167.253 1217.95 -178.617 1221.86 -190.528C1225.77 -202.425 1231.08 -214.926 1237.83 -222.676C1253.95 -241.781 1273.08 -251.361 1295.22 -251.361L1766.08 -251.361C1795.32 -251.361 1817.45 -241.209 1832.4 -220.871C1835.53 -216.739 1838.32 -210.529 1840.77 -203.318C1843.22 -196.099 1845.35 -187.843 1847.16 -179.597C1850.77 -163.105 1853.1 -146.624 1854.14 -138.49C1854.55 -135.331 1852.25 -132.806 1849.08 -132.806L1454.25 -132.806C1452.23 -132.806 1450.25 -133.356 1448.53 -134.396L1394.42 -167.022C1392.31 -168.295 1389.59 -167.808 1388.05 -165.884L1387.53 -165.233C1385.7 -162.954 1386.26 -159.597 1388.71 -158.023L1851.7 138.389C1853.59 139.602 1854.61 141.781 1854.25 144.013C1853.19 150.456 1850.55 165.272 1846.32 180.585C1844.21 188.241 1841.7 196.029 1838.78 202.961C1835.88 209.885 1832.56 215.981 1828.82 220.235Z" stroke="url(#paint28_radial)" stroke-opacity="0.44" stroke-width="0.8263" stroke-linejoin="round"/>
</g>
<g opacity="0.39">
<path d="M1801.07 295.37C1835.49 295.37 1862.53 283.78 1882.2 260.6C1899.9 240.456 1909.91 184.504 1912.23 170.194C1912.57 168.13 1911.62 166.103 1909.86 164.976L1361.42 -186.11C1358.76 -187.816 1358.16 -191.456 1360.13 -193.927L1361.95 -196.195C1363.62 -198.281 1366.57 -198.809 1368.86 -197.429L1433.97 -158.17C1435.63 -157.169 1437.54 -156.64 1439.48 -156.64L1907.46 -156.64C1910.39 -156.64 1912.49 -158.98 1912.12 -161.885C1909.83 -180.06 1901.26 -240.304 1886.41 -259.896C1868.85 -283.779 1842.86 -295.72 1808.44 -295.72L1252.13 -295.72C1226.14 -295.72 1203.66 -284.481 1184.69 -262.004C1168.62 -243.553 1159.36 -201.906 1156.91 -189.617C1156.49 -187.509 1157.42 -185.388 1159.24 -184.229L1737.83 185.569C1740.6 187.341 1741.12 191.177 1738.92 193.623L1736.58 196.218C1734.87 198.117 1732.06 198.536 1729.87 197.217L1664.53 157.821C1662.87 156.819 1660.96 156.29 1659.03 156.29L1260.55 156.29C1226.14 156.29 1200.15 168.231 1182.59 192.114C1167.91 211.488 1159.36 270.609 1156.95 289.5C1156.55 292.647 1159.02 295.37 1162.19 295.37L1801.07 295.37Z" fill="url(#paint29_radial)" fill-opacity="0.28"/>
<path d="M1882.51 260.87C1862.76 284.154 1835.59 295.783 1801.07 295.783L1162.19 295.783C1158.77 295.783 1156.11 292.849 1156.54 289.448C1157.75 279.997 1160.49 260.48 1164.77 240.9C1166.9 231.11 1169.43 221.297 1172.34 212.714C1175.24 204.14 1178.55 196.762 1182.26 191.864C1199.91 167.861 1226.03 155.877 1260.55 155.877L1659.03 155.877C1661.04 155.877 1663.02 156.427 1664.74 157.467L1730.08 196.863C1732.1 198.08 1734.7 197.693 1736.27 195.942L1738.61 193.347C1740.64 191.091 1740.16 187.552 1737.6 185.917L1159.01 -183.881C1157.06 -185.128 1156.05 -187.417 1156.5 -189.698C1157.73 -195.85 1160.66 -209.352 1165.3 -223.627C1169.93 -237.886 1176.29 -252.978 1184.38 -262.271C1203.41 -284.827 1226 -296.133 1252.13 -296.133L1808.44 -296.133C1842.97 -296.133 1869.09 -284.148 1886.74 -260.144C1890.5 -255.192 1893.83 -247.702 1896.76 -239.005C1899.69 -230.298 1902.23 -220.346 1904.38 -210.447C1908.67 -190.648 1911.38 -171.03 1912.53 -161.937C1912.93 -158.781 1910.64 -156.227 1907.46 -156.227L1439.48 -156.227C1437.46 -156.227 1435.48 -156.777 1433.76 -157.817L1368.65 -197.075C1366.54 -198.348 1363.81 -197.861 1362.27 -195.937L1360.46 -193.668C1358.63 -191.389 1359.19 -188.032 1361.64 -186.458L1910.09 164.628C1911.98 165.841 1913 168.029 1912.64 170.26C1911.48 177.421 1908.39 195.003 1903.38 213.318C1900.88 222.475 1897.89 231.823 1894.42 240.147C1890.95 248.464 1886.98 255.785 1882.51 260.87Z" stroke="url(#paint30_radial)" stroke-opacity="0.44" stroke-width="0.8263" stroke-linejoin="round"/>
</g>
<g opacity="0.39">
<path d="M1837.89 335.731C1877.06 335.731 1907.84 322.54 1930.22 296.159C1950.37 273.232 1961.76 209.552 1964.4 193.266C1964.78 190.917 1963.71 188.609 1961.71 187.327L1337.52 -212.251C1334.48 -214.193 1333.8 -218.335 1336.05 -221.147L1338.12 -223.728C1340.02 -226.103 1343.38 -226.703 1345.98 -225.133L1420.09 -180.452C1421.98 -179.313 1424.14 -178.71 1426.35 -178.71L1958.98 -178.71C1962.31 -178.71 1964.7 -181.374 1964.28 -184.68C1961.67 -205.366 1951.91 -273.93 1935.02 -296.228C1915.03 -323.409 1885.46 -337 1846.28 -337L1213.12 -337C1183.54 -337 1157.96 -324.209 1136.38 -298.627C1118.09 -277.628 1107.55 -230.228 1104.75 -216.243C1104.28 -213.842 1105.34 -211.429 1107.41 -210.11L1765.91 210.764C1769.06 212.781 1769.66 217.148 1767.15 219.931L1764.49 222.885C1762.55 225.046 1759.34 225.522 1756.85 224.021L1682.49 179.183C1680.6 178.044 1678.43 177.442 1676.23 177.442L1222.72 177.442C1183.54 177.442 1153.97 191.032 1133.98 218.213C1117.27 240.263 1107.55 307.55 1104.81 329.051C1104.35 332.633 1107.15 335.731 1110.77 335.731L1837.89 335.731Z" fill="url(#paint31_radial)" fill-opacity="0.28"/>
<path d="M1930.58 296.466C1908.09 322.966 1877.18 336.201 1837.89 336.201L1110.77 336.201C1106.88 336.201 1103.85 332.862 1104.34 328.991C1105.71 318.235 1108.83 296.023 1113.7 273.737C1116.13 262.595 1119 251.427 1122.31 241.659C1125.62 231.903 1129.38 223.506 1133.6 217.932C1153.69 190.612 1183.42 176.971 1222.72 176.971L1676.23 176.971C1678.52 176.971 1680.77 177.597 1682.73 178.781L1757.1 223.619C1759.39 225.003 1762.35 224.564 1764.14 222.57L1766.8 219.617C1769.11 217.049 1768.57 213.021 1765.66 211.161L1107.15 -209.714C1104.93 -211.133 1103.78 -213.739 1104.29 -216.335C1105.69 -223.336 1109.03 -238.703 1114.31 -254.95C1119.58 -271.179 1126.81 -288.356 1136.02 -298.932C1157.68 -324.603 1183.39 -337.47 1213.12 -337.47L1846.28 -337.47C1885.58 -337.47 1915.31 -323.83 1935.4 -296.509C1939.67 -290.872 1943.46 -282.349 1946.8 -272.451C1950.14 -262.542 1953.02 -251.216 1955.46 -239.949C1960.35 -217.415 1963.44 -195.087 1964.75 -184.739C1965.2 -181.147 1962.59 -178.24 1958.98 -178.24L1426.35 -178.24C1424.06 -178.24 1421.81 -178.866 1419.85 -180.05L1345.74 -224.731C1343.34 -226.179 1340.24 -225.625 1338.48 -223.435L1336.42 -220.853C1334.34 -218.259 1334.97 -214.438 1337.77 -212.647L1961.96 186.931C1964.12 188.311 1965.28 190.801 1964.87 193.341C1963.55 201.491 1960.04 221.501 1954.33 242.346C1951.48 252.769 1948.08 263.408 1944.13 272.881C1940.18 282.346 1935.67 290.678 1930.58 296.466Z" stroke="url(#paint32_radial)" stroke-opacity="0.44" stroke-width="0.940428" stroke-linejoin="round"/>
</g>
</g>
</g>
<defs>
<filter id="filter0_f" x="-214" y="-456" width="1852.97" height="1291.03" filterUnits="userSpaceOnUse" color-interpolation-filters="sRGB">
<feFlood flood-opacity="0" result="BackgroundImageFix"/>
<feBlend mode="normal" in="SourceGraphic" in2="BackgroundImageFix" result="shape"/>
<feGaussianBlur stdDeviation="77" result="effect1_foregroundBlur"/>
</filter>
<radialGradient id="paint0_radial" cx="0" cy="0" r="1" gradientUnits="userSpaceOnUse" gradientTransform="translate(1183.09 405.432) rotate(-149.004) scale(560.078)">
<stop stop-color="#87DDE8" stop-opacity="0.81"/>
<stop offset="1" stop-opacity="0"/>
</radialGradient>
<radialGradient id="paint1_radial" cx="0" cy="0" r="1" gradientUnits="userSpaceOnUse" gradientTransform="translate(1028.02 39.0236) rotate(-141.049) scale(325.111)">
<stop stop-color="#FF9900" stop-opacity="0.47"/>
<stop offset="1" stop-opacity="0"/>
</radialGradient>
<radialGradient id="paint2_radial" cx="0" cy="0" r="1" gradientUnits="userSpaceOnUse" gradientTransform="translate(888.976 272.976) rotate(-116.783) scale(373.853)">
<stop stop-color="#25A904" stop-opacity="0.29"/>
<stop offset="1" stop-opacity="0"/>
</radialGradient>
<radialGradient id="paint3_radial" cx="0" cy="0" r="1" gradientUnits="userSpaceOnUse" gradientTransform="translate(1270.7 65.7134) rotate(90) scale(438.488 436.153)">
<stop stop-color="#3D088C" stop-opacity="0.49"/>
<stop offset="1" stop-color="#384361" stop-opacity="0"/>
</radialGradient>
<radialGradient id="paint4_radial" cx="0" cy="0" r="1" gradientUnits="userSpaceOnUse" gradientTransform="translate(154.265 186.785) rotate(91.3043) scale(538.854 535.985)">
<stop stop-color="#1570FB" stop-opacity="0.53"/>
<stop offset="1" stop-color="#384361" stop-opacity="0"/>
</radialGradient>
<radialGradient id="paint5_radial" cx="0" cy="0" r="1" gradientUnits="userSpaceOnUse" gradientTransform="translate(816.976 229.976) rotate(-116.783) scale(373.853)">
<stop stop-color="#FEA623" stop-opacity="0.35"/>
<stop offset="1" stop-opacity="0"/>
</radialGradient>
<radialGradient id="paint6_radial" cx="0" cy="0" r="1" gradientUnits="userSpaceOnUse" gradientTransform="translate(1170.98 169.976) rotate(-122.105) scale(231.389)">
<stop stop-color="#26B602" stop-opacity="0.52"/>
<stop offset="1" stop-opacity="0"/>
</radialGradient>
<radialGradient id="paint7_radial" cx="0" cy="0" r="1" gradientUnits="userSpaceOnUse" gradientTransform="translate(487.266 190) rotate(90) scale(507.07 504.371)">
<stop stop-color="#3D088C" stop-opacity="0.54"/>
<stop offset="1" stop-color="#384361" stop-opacity="0"/>
</radialGradient>
<radialGradient id="paint8_radial" cx="0" cy="0" r="1" gradientUnits="userSpaceOnUse" gradientTransform="translate(680.84 36) rotate(-139.855) scale(383.877)">
<stop stop-color="#FA5D66" stop-opacity="0.71"/>
<stop offset="1" stop-opacity="0"/>
</radialGradient>
<radialGradient id="paint9_radial" cx="0" cy="0" r="1" gradientUnits="userSpaceOnUse" gradientTransform="translate(-93.2158 -0.43839) rotate(-0.131868) scale(355.047 276.961)">
<stop stop-color="#263D63"/>
<stop offset="1" stop-color="white"/>
</radialGradient>
<radialGradient id="paint10_radial" cx="0" cy="0" r="1" gradientUnits="userSpaceOnUse" gradientTransform="translate(-93.2158 -0.43839) rotate(-0.131868) scale(355.047 276.961)">
<stop stop-color="#E8E8E8"/>
<stop offset="1" stop-color="white"/>
</radialGradient>
<radialGradient id="paint11_radial" cx="0" cy="0" r="1" gradientUnits="userSpaceOnUse" gradientTransform="translate(-93.2162 -0.759981) rotate(-0.131884) scale(455.094 355.047)">
<stop stop-color="#263D63"/>
<stop offset="1" stop-color="white"/>
</radialGradient>
<radialGradient id="paint12_radial" cx="0" cy="0" r="1" gradientUnits="userSpaceOnUse" gradientTransform="translate(-93.2162 -0.759981) rotate(-0.131884) scale(455.094 355.047)">
<stop stop-color="#E8E8E8"/>
<stop offset="1" stop-color="white"/>
</radialGradient>
<radialGradient id="paint13_radial" cx="0" cy="0" r="1" gradientUnits="userSpaceOnUse" gradientTransform="translate(-93.2155 -0.00598075) rotate(-0.132057) scale(557.582 435.573)">
<stop stop-color="#263D63"/>
<stop offset="1" stop-color="white"/>
</radialGradient>
<radialGradient id="paint14_radial" cx="0" cy="0" r="1" gradientUnits="userSpaceOnUse" gradientTransform="translate(-93.2155 -0.00598075) rotate(-0.132057) scale(557.582 435.573)">
<stop stop-color="#E8E8E8"/>
<stop offset="1" stop-color="white"/>
</radialGradient>
<radialGradient id="paint15_radial" cx="0" cy="0" r="1" gradientUnits="userSpaceOnUse" gradientTransform="translate(-93.2174 -0.506344) rotate(-0.132097) scale(669.83 523.419)">
<stop stop-color="#263D63"/>
<stop offset="1" stop-color="white"/>
</radialGradient>
<radialGradient id="paint16_radial" cx="0" cy="0" r="1" gradientUnits="userSpaceOnUse" gradientTransform="translate(-93.2174 -0.506344) rotate(-0.132097) scale(669.83 523.419)">
<stop stop-color="#E8E8E8"/>
<stop offset="1" stop-color="white"/>
</radialGradient>
<radialGradient id="paint17_radial" cx="0" cy="0" r="1" gradientUnits="userSpaceOnUse" gradientTransform="translate(-93.4996 0.0938642) rotate(-0.132083) scale(791.399 618.35)">
<stop stop-color="#263D63"/>
<stop offset="1" stop-color="white"/>
</radialGradient>
<radialGradient id="paint18_radial" cx="0" cy="0" r="1" gradientUnits="userSpaceOnUse" gradientTransform="translate(-93.4996 0.0938642) rotate(-0.132083) scale(791.399 618.35)">
<stop stop-color="#E8E8E8"/>
<stop offset="1" stop-color="white"/>
</radialGradient>
<radialGradient id="paint19_radial" cx="0" cy="0" r="1" gradientUnits="userSpaceOnUse" gradientTransform="translate(-93.5 -0.365575) rotate(-0.132083) scale(900.708 703.756)">
<stop stop-color="#263D63"/>
<stop offset="1" stop-color="white"/>
</radialGradient>
<radialGradient id="paint20_radial" cx="0" cy="0" r="1" gradientUnits="userSpaceOnUse" gradientTransform="translate(-93.5 -0.365575) rotate(-0.132083) scale(900.708 703.756)">
<stop stop-color="#E8E8E8"/>
<stop offset="1" stop-color="white"/>
</radialGradient>
<radialGradient id="paint21_radial" cx="0" cy="0" r="1" gradientUnits="userSpaceOnUse" gradientTransform="translate(1534.22 -0.707189) rotate(-179.868) scale(355.047 276.961)">
<stop stop-color="#263D63"/>
<stop offset="1" stop-color="white"/>
</radialGradient>
<radialGradient id="paint22_radial" cx="0" cy="0" r="1" gradientUnits="userSpaceOnUse" gradientTransform="translate(1534.22 -0.707189) rotate(-179.868) scale(355.047 276.961)">
<stop stop-color="#E8E8E8"/>
<stop offset="1" stop-color="white"/>
</radialGradient>
<radialGradient id="paint23_radial" cx="0" cy="0" r="1" gradientUnits="userSpaceOnUse" gradientTransform="translate(1534.22 -1.02878) rotate(-179.868) scale(455.094 355.047)">
<stop stop-color="#263D63"/>
<stop offset="1" stop-color="white"/>
</radialGradient>
<radialGradient id="paint24_radial" cx="0" cy="0" r="1" gradientUnits="userSpaceOnUse" gradientTransform="translate(1534.22 -1.02878) rotate(-179.868) scale(455.094 355.047)">
<stop stop-color="#E8E8E8"/>
<stop offset="1" stop-color="white"/>
</radialGradient>
<radialGradient id="paint25_radial" cx="0" cy="0" r="1" gradientUnits="userSpaceOnUse" gradientTransform="translate(1534.22 -0.27478) rotate(-179.868) scale(557.582 435.573)">
<stop stop-color="#263D63"/>
<stop offset="1" stop-color="white"/>
</radialGradient>
<radialGradient id="paint26_radial" cx="0" cy="0" r="1" gradientUnits="userSpaceOnUse" gradientTransform="translate(1534.22 -0.27478) rotate(-179.868) scale(557.582 435.573)">
<stop stop-color="#E8E8E8"/>
<stop offset="1" stop-color="white"/>
</radialGradient>
<radialGradient id="paint27_radial" cx="0" cy="0" r="1" gradientUnits="userSpaceOnUse" gradientTransform="translate(1534.22 -0.775143) rotate(-179.868) scale(669.83 523.419)">
<stop stop-color="#263D63"/>
<stop offset="1" stop-color="white"/>
</radialGradient>
<radialGradient id="paint28_radial" cx="0" cy="0" r="1" gradientUnits="userSpaceOnUse" gradientTransform="translate(1534.22 -0.775143) rotate(-179.868) scale(669.83 523.419)">
<stop stop-color="#E8E8E8"/>
<stop offset="1" stop-color="white"/>
</radialGradient>
<radialGradient id="paint29_radial" cx="0" cy="0" r="1" gradientUnits="userSpaceOnUse" gradientTransform="translate(1534.5 -0.174935) rotate(-179.868) scale(791.399 618.35)">
<stop stop-color="#263D63"/>
<stop offset="1" stop-color="white"/>
</radialGradient>
<radialGradient id="paint30_radial" cx="0" cy="0" r="1" gradientUnits="userSpaceOnUse" gradientTransform="translate(1534.5 -0.174935) rotate(-179.868) scale(791.399 618.35)">
<stop stop-color="#E8E8E8"/>
<stop offset="1" stop-color="white"/>
</radialGradient>
<radialGradient id="paint31_radial" cx="0" cy="0" r="1" gradientUnits="userSpaceOnUse" gradientTransform="translate(1534.5 -0.634374) rotate(-179.868) scale(900.708 703.756)">
<stop stop-color="#263D63"/>
<stop offset="1" stop-color="white"/>
</radialGradient>
<radialGradient id="paint32_radial" cx="0" cy="0" r="1" gradientUnits="userSpaceOnUse" gradientTransform="translate(1534.5 -0.634374) rotate(-179.868) scale(900.708 703.756)">
<stop stop-color="#E8E8E8"/>
<stop offset="1" stop-color="white"/>
</radialGradient>
<clipPath id="clip0">
<rect width="1440" height="321" fill="white"/>
</clipPath>
</defs>
</svg>
