<svg width="60px" height="60px" viewBox="0 0 856 1049" fill="none" xmlns="http://www.w3.org/2000/svg">
  <g opacity="0.39" filter="url(#filter0_d)">
  <path d="M288.446 399.323C288.446 383.082 293.906 370.32 304.827 361.039C311.216 355.416 325.25 351.437 335.797 349.103C343.792 347.334 351.839 351.053 356.248 357.952L514.868 606.14C515.893 607.743 518.081 608.104 519.566 606.914C520.817 605.912 521.133 604.139 520.307 602.766L507.372 581.279C503.463 574.785 501.398 567.349 501.398 559.77V367.325C501.398 355.866 510.604 347.602 521.855 349.772C532.594 351.844 544.623 354.936 550.044 359.05C561.296 367.337 566.922 379.601 566.922 395.843V658.364C566.922 670.628 561.627 681.235 551.037 690.185C545.796 694.757 536.582 698.161 528.823 700.397C520.729 702.73 512.345 698.982 507.814 691.882L340.699 429.987C339.591 428.251 337.188 427.925 335.658 429.304C334.473 430.373 334.212 432.131 335.035 433.498L347.995 455.029C351.904 461.523 353.97 468.958 353.97 476.538V654.386C353.97 670.628 348.344 682.893 337.092 691.179C332.09 694.975 321.465 697.901 311.417 699.958C299.251 702.449 288.446 692.759 288.446 680.341V399.323Z" fill="url(#paint0_radial)"/>
  <path d="M303.769 .site-footer
{
  background-color:#26272b;
  padding:45px 0 20px;
  font-size:15px;
  line-height:24px;
  color:#737373;
}
.site-footer hr
{
  border-top-color:#bbb;
  opacity:0.5
}
.site-footer hr.small
{
  margin:20px 0
}
.site-footer h6
{
  color:#fff;
  font-size:16px;
  text-transform:uppercase;
  margin-top:5px;
  letter-spacing:2px
}
.site-footer a
{
  color:#737373;
}
.site-footer a:hover
{
  color:#3366cc;
  text-decoration:none;
}
.footer-links
{
  padding-left:0;
  list-style:none
}
.footer-links li
{
  display:block
}
.footer-links a
{
  color:#737373
}
.footer-links a:active,.footer-links a:focus,.footer-links a:hover
{
  color:#3366cc;
  text-decoration:none;
}
.footer-links.inline li
{
  display:inline-block
}
.site-footer .social-icons
{
  text-align:right
}
.site-footer .social-icons a
{
  width:40px;
  height:40px;
  line-height:40px;
  margin-left:6px;
  margin-right:0;
  border-radius:100%;
  background-color:#33353d
}
.copyright-text
{
  margin:0
}
@media (max-width:991px)
{
  .site-footer [class^=col-]
  {
    margin-bottom:30px
  }
}
@media (max-width:767px)
{
  .site-footer
  {
    padding-bottom:0
  }
  .site-footer .copyright-text,.site-footer .social-icons
  {
    text-align:center
  }
}
.social-icons
{
  padding-left:0;
  margin-bottom:0;
  list-style:none
}
.social-icons li
{
  display:inline-block;
  margin-bottom:4px
}
.social-icons li.title
{
  margin-right:15px;
  text-transform:uppercase;
  color:#96a2b2;
  font-weight:700;
  font-size:13px
}
.social-icons a{
  background-color:#eceeef;
  color:#818a91;
  font-size:16px;
  display:inline-block;
  line-height:44px;
  width:44px;
  height:44px;
  text-align:center;
  margin-right:8px;
  border-radius:100%;
  -webkit-transition:all .2s linear;
  -o-transition:all .2s linear;
  transition:all .2s linear
}
.social-icons a:active,.social-icons a:focus,.social-icons a:hover
{
  color:#fff;
  background-color:#29aafe
}
.social-icons.size-sm a
{
  line-height:34px;
  height:34px;
  width:34px;
  font-size:14px
}
.social-icons a.facebook:hover
{
  background-color:#3b5998
}
.social-icons a.twitter:hover
{
  background-color:#00aced
}
.social-icons a.linkedin:hover
{
  background-color:#007bb6
}
.social-icons a.dribbble:hover
{
  background-color:#ea4c89
}
@media (max-width:767px)
{
  .social-icons li.title
  {
    display:block;
    margin-right:0;
    font-weight:600
  }
}359.816C292.444 369.447 286.829 382.683 286.829 399.323V680.341C286.829 693.678 298.473 704.258 311.741 701.542C316.796 700.507 322.028 699.248 326.643 697.759C331.215 696.285 335.333 694.54 338.061 692.474C349.791 683.831 355.586 671.043 355.586 654.386V476.538C355.586 468.665 353.441 460.94 349.381 454.195L336.42 432.664C335.996 431.961 336.131 431.055 336.741 430.505C337.528 429.795 338.765 429.963 339.336 430.857L506.451 692.751C511.317 700.377 520.402 704.507 529.271 701.951C537.023 699.717 546.55 696.239 552.09 691.412C562.984 682.202 568.539 671.166 568.539 658.364V395.843C568.539 379.187 562.743 366.399 551.013 357.755C548.063 355.52 543.473 353.654 538.419 352.1C533.315 350.53 527.561 349.226 522.161 348.185C509.827 345.805 499.781 354.94 499.781 367.325V559.77C499.781 567.643 501.927 575.367 505.987 582.113L518.921 603.6C519.33 604.279 519.174 605.156 518.555 605.652C517.82 606.241 516.737 606.062 516.23 605.269L357.611 357.082C352.869 349.663 344.164 345.596 335.448 347.525C330.14 348.699 323.925 350.293 318.214 352.313C312.552 354.315 307.207 356.795 303.769 359.816Z" stroke="url(#paint1_radial)" stroke-width="3.23366" stroke-linejoin="round"/>
  </g>
  <g opacity="0.39" filter="url(#filter1_d)">
  <path d="M249.189 363.877C249.189 343.058 256.189 326.701 270.189 314.805C279.155 306.913 299.87 301.549 313.604 298.711C321.623 297.055 329.656 300.755 334.066 307.654L539.449 628.972C540.762 631.027 543.567 631.489 545.471 629.964C547.074 628.679 547.48 626.407 546.42 624.646L528.156 594.309C524.247 587.815 522.181 580.379 522.181 572.799V317.028C522.181 305.569 531.373 297.341 542.661 299.309C557.615 301.917 576.604 306.232 584.542 312.256C598.966 322.877 606.178 338.597 606.178 359.416V695.912C606.178 711.632 599.39 725.228 585.815 736.699C578.22 743.325 564.115 748.037 553.553 750.836C545.412 752.993 537.046 749.28 532.515 742.18L316.174 403.181C314.753 400.955 311.674 400.538 309.713 402.306C308.194 403.676 307.858 405.93 308.913 407.682L327.211 438.076C331.121 444.57 333.187 452.006 333.187 459.586V690.814C333.187 711.632 325.975 727.352 311.551 737.974C304.053 743.663 286.697 747.828 272.194 750.47C259.977 752.696 249.189 743.056 249.189 730.639V363.877Z" fill="url(#paint2_radial)"/>
  <path d="M269.131 313.582C254.727 325.827 247.572 342.66 247.572 363.877V730.639C247.572 743.991 259.203 754.48 272.484 752.061C279.763 750.735 287.79 749.021 294.955 746.916C302.061 744.828 308.518 742.301 312.519 739.269C327.421 728.29 334.804 712.047 334.804 690.814V459.586C334.804 451.712 332.658 443.988 328.597 437.242L310.299 406.848C309.643 405.759 309.851 404.358 310.796 403.507C312.014 402.408 313.928 402.668 314.811 404.051L531.152 743.05C536.023 750.683 545.079 754.754 553.968 752.398C559.287 750.989 565.524 749.091 571.406 746.7C577.258 744.321 582.872 741.409 586.868 737.926C600.748 726.194 607.795 712.17 607.795 695.912V359.416C607.795 338.182 600.413 321.939 585.51 310.96C581.278 307.754 574.292 305.107 566.674 302.946C558.989 300.767 550.443 299.025 542.939 297.717C530.598 295.565 520.564 304.631 520.564 317.028V572.799C520.564 580.673 522.71 588.397 526.771 595.143L545.035 625.48C545.677 626.547 545.431 627.924 544.46 628.702C543.306 629.626 541.607 629.346 540.811 628.101L335.428 306.783C330.684 299.36 321.999 295.327 313.277 297.128C306.378 298.553 297.697 300.619 289.596 303.329C281.554 306.02 273.874 309.413 269.131 313.582Z" stroke="url(#paint3_radial)" stroke-width="3.23366" stroke-linejoin="round"/>
  </g>
  <g opacity="0.39" filter="url(#filter2_d)">
  <path d="M208.706 327.566C208.706 302.059 217.293 282.018 234.468 267.443C246.143 257.181 274.052 250.407 290.729 247.121C298.756 245.539 306.78 249.224 311.191 256.116L564.799 652.364C566.41 654.881 569.847 655.447 572.18 653.58C574.15 652.004 574.648 649.214 573.346 647.054L549.601 607.664C545.683 601.166 543.613 593.721 543.613 586.133V265.504C543.613 254.045 552.794 245.829 564.103 247.676C582.954 250.754 609.538 256.302 620.119 264.319C637.814 277.333 646.661 296.593 646.661 322.1V734.376C646.661 753.636 638.334 770.294 621.68 784.348C611.607 793.123 592.202 799.159 579.044 802.455C570.88 804.501 562.52 800.811 557.988 793.719L290.881 375.718C289.138 372.992 285.366 372.481 282.962 374.645C281.095 376.325 280.684 379.093 281.98 381.243L305.767 420.702C309.684 427.201 311.754 434.645 311.754 442.233V728.129C311.754 753.636 302.907 772.896 285.212 785.91C275.096 793.575 250.354 798.983 231.726 802.133C219.484 804.204 208.706 794.583 208.706 782.166V327.566Z" fill="url(#paint4_radial)"/>
  <path d="M233.411 266.219C215.831 281.144 207.089 301.66 207.089 327.566V782.166C207.089 795.525 218.709 805.974 231.996 803.728C241.336 802.148 252.239 799.998 262.092 797.273C271.876 794.568 280.854 791.237 286.181 787.204C304.353 773.834 313.371 754.05 313.371 728.129V442.233C313.371 434.351 311.221 426.618 307.151 419.867L283.365 380.408C282.468 378.922 282.753 377.008 284.043 375.847C285.706 374.35 288.314 374.704 289.518 376.588L556.626 794.59C561.501 802.219 570.545 806.252 579.437 804.024C586.053 802.366 594.265 800.014 602.105 796.963C609.911 793.926 617.482 790.145 622.73 785.578C639.69 771.262 648.278 754.175 648.278 734.376V322.1C648.278 296.178 639.26 276.394 621.086 263.024C615.519 258.81 605.955 255.357 595.632 252.584C585.233 249.79 573.814 247.624 564.363 246.08C552.019 244.065 541.996 253.101 541.996 265.504V586.133C541.996 594.016 544.147 601.748 548.216 608.499L571.961 647.889C572.845 649.355 572.507 651.248 571.17 652.318C569.587 653.585 567.254 653.2 566.161 651.492L312.552 255.244C307.806 247.827 299.134 243.816 290.416 245.534C282.047 247.183 270.833 249.713 260.227 253.127C249.689 256.519 239.519 260.856 233.411 266.219Z" stroke="url(#paint5_radial)" stroke-width="3.23366" stroke-linejoin="round"/>
  </g>
  <g opacity="0.39" filter="url(#filter3_d)">
  <path d="M164.543 287.797C164.543 257.155 174.862 233.08 195.5 215.57C210.172 202.678 246.18 194.368 265.772 190.641C273.809 189.112 281.825 192.792 286.236 199.681L592.453 677.982C594.389 681.005 598.518 681.686 601.321 679.443C603.688 677.549 604.287 674.196 602.722 671.6L572.985 622.285C569.065 615.785 566.994 608.339 566.994 600.749V209.073C566.994 197.614 576.18 189.406 587.503 191.168C610.22 194.704 645.423 201.587 658.929 211.818C680.193 227.452 690.825 250.589 690.825 281.231V776.503C690.825 799.64 680.818 819.651 660.805 836.536C647.982 847.703 622.574 855.177 606.838 858.958C598.656 860.924 590.31 857.244 585.777 850.154L263.289 345.641C261.196 342.367 256.664 341.753 253.775 344.353C251.532 346.371 251.037 349.698 252.596 352.282L282.383 401.68C286.302 408.18 288.374 415.626 288.374 423.216V768.998C288.374 799.64 277.742 822.778 256.478 838.412C243.461 848.272 210.293 855.022 187.571 858.664C175.311 860.628 164.543 851.015 164.543 838.598V287.797Z" fill="url(#paint6_radial)"/>
  <path d="M194.444 214.346C173.4 232.205 162.926 256.756 162.926 287.797V838.598C162.926 851.961 174.537 862.39 187.827 860.26C199.213 858.435 213.245 855.828 226.078 852.433C238.831 849.059 250.655 844.846 257.444 839.708C279.187 823.718 289.991 800.056 289.991 768.998V423.216C289.991 415.332 287.839 407.597 283.768 400.845L253.98 351.447C252.822 349.527 253.19 347.054 254.857 345.554C257.004 343.622 260.372 344.078 261.927 346.512L584.415 851.025C589.292 858.654 598.317 862.669 607.216 860.53C615.12 858.631 625.476 855.799 635.484 852.03C645.454 848.275 655.226 843.535 661.858 837.762C682.175 820.618 692.442 800.179 692.442 776.503V281.231C692.442 250.173 681.639 226.512 659.896 210.522C652.855 205.193 640.391 200.856 627.074 197.417C613.673 193.957 599.134 191.342 587.751 189.571C575.406 187.649 565.377 196.665 565.377 209.073V600.749C565.377 608.633 567.529 616.368 571.6 623.12L601.337 672.435C602.484 674.337 602.045 676.793 600.311 678.18C598.258 679.823 595.233 679.325 593.815 677.11L287.597 198.809C282.849 191.393 274.189 187.394 265.47 189.053C255.644 190.922 241.677 193.944 228.309 198.125C215.013 202.283 202.058 207.661 194.444 214.346Z" stroke="url(#paint7_radial)" stroke-width="3.23366" stroke-linejoin="round"/>
  </g>
  <g opacity="0.39" filter="url(#filter4_d)">
  <path d="M116.937 244.428C116.937 208.225 129.128 179.78 153.509 159.093C171.461 143.317 216.449 133.349 238.929 129.188C246.973 127.699 254.977 131.378 259.387 138.268L622.456 705.428C624.743 709 629.621 709.804 632.933 707.154C635.729 704.917 636.436 700.956 634.587 697.889L598.369 637.819C594.45 631.32 592.379 623.874 592.379 616.285V147.658C592.379 136.199 601.562 127.995 612.894 129.695C639.443 133.677 684.276 141.999 700.988 154.66C726.109 173.13 738.669 200.467 738.669 236.671V821.83C738.669 849.167 726.847 872.81 703.205 892.758C687.371 906.549 655.294 915.573 637 919.83C628.803 921.737 620.458 918.063 615.926 910.972L233.593 312.771C231.12 308.902 225.766 308.177 222.353 311.249C219.703 313.633 219.118 317.563 220.959 320.616L257.237 380.784C261.156 387.283 263.227 394.729 263.227 402.318V812.964C263.227 849.167 250.666 876.504 225.546 894.975C209.35 907.244 166.748 915.439 139.967 919.558C127.696 921.446 116.937 911.834 116.937 899.418V244.428Z" fill="url(#paint8_radial)"/>
  <path d="M152.453 157.869C127.666 178.905 115.32 207.826 115.32 244.428V899.418C115.32 912.782 126.92 923.201 140.213 921.156C153.628 919.093 171.032 916.005 187.127 911.889C203.135 907.796 218.124 902.621 226.512 896.271C252.112 877.444 264.844 849.583 264.844 812.964V402.318C264.844 394.435 262.692 386.701 258.622 379.949L222.344 319.781C220.903 317.392 221.361 314.317 223.434 312.45C226.105 310.046 230.296 310.614 232.231 313.642L614.564 911.843C619.442 919.475 628.462 923.477 637.366 921.405C646.548 919.268 659.211 915.931 671.582 911.387C683.911 906.859 696.111 901.077 704.257 893.986C728.204 873.777 740.286 849.706 740.286 821.83V236.671C740.286 200.051 727.554 172.19 701.954 153.363C693.302 146.814 677.618 141.51 661.023 137.354C644.335 133.176 626.432 130.09 613.133 128.096C600.787 126.244 590.762 135.249 590.762 147.658V616.285C590.762 624.169 592.913 631.903 596.984 638.654L633.203 698.724C634.633 701.097 634.086 704.161 631.923 705.892C629.36 707.942 625.587 707.32 623.817 704.556L260.749 137.396C256.001 129.979 247.356 125.984 238.634 127.598C227.366 129.684 210.432 133.229 194.048 138.238C177.743 143.224 161.713 149.736 152.453 157.869Z" stroke="url(#paint9_radial)" stroke-width="3.23366" stroke-linejoin="round"/>
  </g>
  <g opacity="0.39" filter="url(#filter5_d)">
  <path d="M74 205.701C74 164.498 87.8746 132.123 115.624 108.579C136.055 90.6237 187.257 79.2788 212.842 74.5439C221.997 72.8495 231.106 77.0358 236.126 84.8774L649.341 730.374C651.944 734.44 657.496 735.354 661.265 732.339C664.448 729.793 665.253 725.284 663.149 721.794L621.927 653.427C617.467 646.03 615.11 637.556 615.11 628.919V95.5647C615.11 82.5233 625.561 73.1855 638.458 75.1202C668.675 79.6529 719.7 89.1239 738.721 103.533C767.311 124.555 781.606 155.668 781.606 196.872V862.853C781.606 893.966 768.151 920.874 741.243 943.578C723.222 959.274 686.715 969.544 665.894 974.389C656.565 976.56 647.068 972.378 641.91 964.308L206.769 283.483C203.954 279.08 197.861 278.254 193.976 281.75C190.96 284.465 190.295 288.937 192.39 292.411L233.679 360.89C238.139 368.287 240.495 376.761 240.495 385.399V852.763C240.495 893.966 226.2 925.079 197.61 946.101C179.178 960.065 130.692 969.391 100.212 974.08C86.2447 976.228 74 965.288 74 951.157V205.701Z" fill="url(#paint10_radial)"/>
  <path d="M114.421 107.186C86.2106 131.128 72.1599 164.043 72.1599 205.701V951.157C72.1599 966.367 85.3622 978.226 100.491 975.899C115.759 973.55 135.566 970.036 153.885 965.352C172.105 960.693 189.165 954.803 198.711 947.576C227.846 926.148 242.336 894.439 242.336 852.763V385.399C242.336 376.426 239.887 367.624 235.254 359.94L193.966 291.461C192.326 288.742 192.847 285.242 195.207 283.118C198.247 280.382 203.016 281.028 205.219 284.474L640.36 965.299C645.911 973.985 656.177 978.54 666.311 976.182C676.761 973.75 691.173 969.951 705.253 964.78C719.285 959.627 733.17 953.046 742.44 944.976C769.695 921.976 783.446 894.579 783.446 862.853V196.872C783.446 155.196 768.956 123.487 739.822 102.059C729.976 94.6047 712.125 88.5681 693.235 83.8379C674.242 79.0819 653.866 75.5708 638.731 73.3004C624.68 71.1926 613.27 81.4412 613.27 95.5647V628.919C613.27 637.891 615.719 646.693 620.351 654.377L661.573 722.744C663.201 725.444 662.578 728.932 660.116 730.902C657.2 733.235 652.905 732.527 650.891 729.382L237.675 83.8853C232.272 75.4439 222.433 70.8973 212.507 72.7344C199.682 75.108 180.409 79.1427 161.762 84.844C143.204 90.5182 124.961 97.9301 114.421 107.186Z" stroke="url(#paint11_radial)" stroke-width="3.6803" stroke-linejoin="round"/>
  </g>
  <defs>
  <filter id="filter0_d" x="215.287" y="275.504" width="424.794" height="498.748" filterUnits="userSpaceOnUse" color-interpolation-filters="sRGB">
  <feFlood flood-opacity="0" result="BackgroundImageFix"/>
  <feColorMatrix in="SourceAlpha" type="matrix" values="0 0 0 0 0 0 0 0 0 0 0 0 0 0 0 0 0 0 127 0" result="hardAlpha"/>
  <feOffset/>
  <feGaussianBlur stdDeviation="34.9628"/>
  <feColorMatrix type="matrix" values="0 0 0 0 0.0720486 0 0 0 0 0.307076 0 0 0 0 0.691667 0 0 0 1 0"/>
  <feBlend mode="normal" in2="BackgroundImageFix" result="effect1_dropShadow"/>
  <feBlend mode="normal" in="SourceGraphic" in2="effect1_dropShadow" result="shape"/>
  </filter>
  <filter id="filter1_d" x="176.03" y="225.158" width="503.307" height="599.45" filterUnits="userSpaceOnUse" color-interpolation-filters="sRGB">
  <feFlood flood-opacity="0" result="BackgroundImageFix"/>
  <feColorMatrix in="SourceAlpha" type="matrix" values="0 0 0 0 0 0 0 0 0 0 0 0 0 0 0 0 0 0 127 0" result="hardAlpha"/>
  <feOffset/>
  <feGaussianBlur stdDeviation="34.9628"/>
  <feColorMatrix type="matrix" values="0 0 0 0 0.0720486 0 0 0 0 0.307076 0 0 0 0 0.691667 0 0 0 1 0"/>
  <feBlend mode="normal" in2="BackgroundImageFix" result="effect1_dropShadow"/>
  <feBlend mode="normal" in="SourceGraphic" in2="effect1_dropShadow" result="shape"/>
  </filter>
  <filter id="filter2_d" x="135.547" y="173.597" width="584.274" height="702.581" filterUnits="userSpaceOnUse" color-interpolation-filters="sRGB">
  <feFlood flood-opacity="0" result="BackgroundImageFix"/>
  <feColorMatrix in="SourceAlpha" type="matrix" values="0 0 0 0 0 0 0 0 0 0 0 0 0 0 0 0 0 0 127 0" result="hardAlpha"/>
  <feOffset/>
  <feGaussianBlur stdDeviation="34.9628"/>
  <feColorMatrix type="matrix" values="0 0 0 0 0.0720486 0 0 0 0 0.307076 0 0 0 0 0.691667 0 0 0 1 0"/>
  <feBlend mode="normal" in2="BackgroundImageFix" result="effect1_dropShadow"/>
  <feBlend mode="normal" in="SourceGraphic" in2="effect1_dropShadow" result="shape"/>
  </filter>
  <filter id="filter3_d" x="91.3833" y="117.138" width="672.601" height="815.507" filterUnits="userSpaceOnUse" color-interpolation-filters="sRGB">
  <feFlood flood-opacity="0" result="BackgroundImageFix"/>
  <feColorMatrix in="SourceAlpha" type="matrix" values="0 0 0 0 0 0 0 0 0 0 0 0 0 0 0 0 0 0 127 0" result="hardAlpha"/>
  <feOffset/>
  <feGaussianBlur stdDeviation="34.9628"/>
  <feColorMatrix type="matrix" values="0 0 0 0 0.0720486 0 0 0 0 0.307076 0 0 0 0 0.691667 0 0 0 1 0"/>
  <feBlend mode="normal" in2="BackgroundImageFix" result="effect1_dropShadow"/>
  <feBlend mode="normal" in="SourceGraphic" in2="effect1_dropShadow" result="shape"/>
  </filter>
  <filter id="filter4_d" x="43.7775" y="55.7003" width="768.051" height="937.791" filterUnits="userSpaceOnUse" color-interpolation-filters="sRGB">
  <feFlood flood-opacity="0" result="BackgroundImageFix"/>
  <feColorMatrix in="SourceAlpha" type="matrix" values="0 0 0 0 0 0 0 0 0 0 0 0 0 0 0 0 0 0 127 0" result="hardAlpha"/>
  <feOffset/>
  <feGaussianBlur stdDeviation="34.9628"/>
  <feColorMatrix type="matrix" values="0 0 0 0 0.0720486 0 0 0 0 0.307076 0 0 0 0 0.691667 0 0 0 1 0"/>
  <feBlend mode="normal" in2="BackgroundImageFix" result="effect1_dropShadow"/>
  <feBlend mode="normal" in="SourceGraphic" in2="effect1_dropShadow" result="shape"/>
  </filter>
  <filter id="filter5_d" x="0.394066" y="0.563927" width="854.818" height="1048" filterUnits="userSpaceOnUse" color-interpolation-filters="sRGB">
  <feFlood flood-opacity="0" result="BackgroundImageFix"/>
  <feColorMatrix in="SourceAlpha" type="matrix" values="0 0 0 0 0 0 0 0 0 0 0 0 0 0 0 0 0 0 127 0" result="hardAlpha"/>
  <feOffset/>
  <feGaussianBlur stdDeviation="34.9628"/>
  <feColorMatrix type="matrix" values="0 0 0 0 0.0720486 0 0 0 0 0.307076 0 0 0 0 0.691667 0 0 0 1 0"/>
  <feBlend mode="normal" in2="BackgroundImageFix" result="effect1_dropShadow"/>
  <feBlend mode="normal" in="SourceGraphic" in2="effect1_dropShadow" result="shape"/>
  </filter>
  <radialGradient id="paint0_radial" cx="0" cy="0" r="1" gradientUnits="userSpaceOnUse" gradientTransform="translate(427.684 525.115) rotate(89.8681) scale(373.452 291.319)">
  <stop stop-color="#57B8F1"/>
  <stop offset="1" stop-color="#0D037B"/>
  </radialGradient>
  <radialGradient id="paint1_radial" cx="0" cy="0" r="1" gradientUnits="userSpaceOnUse" gradientTransform="translate(427.684 525.115) rotate(89.8681) scale(373.452 291.319)">
  <stop stop-color="#6DBDED"/>
  <stop offset="1" stop-color="#786DF6"/>
  </radialGradient>
  <radialGradient id="paint2_radial" cx="0" cy="0" r="1" gradientUnits="userSpaceOnUse" gradientTransform="translate(427.684 525.115) rotate(89.8681) scale(478.686 373.452)">
  <stop stop-color="#57B8F1"/>
  <stop offset="1" stop-color="#0D037B"/>
  </radialGradient>
  <radialGradient id="paint3_radial" cx="0" cy="0" r="1" gradientUnits="userSpaceOnUse" gradientTransform="translate(427.684 525.115) rotate(89.8681) scale(478.686 373.452)">
  <stop stop-color="#6DBDED"/>
  <stop offset="1" stop-color="#786DF6"/>
  </radialGradient>
  <radialGradient id="paint4_radial" cx="0" cy="0" r="1" gradientUnits="userSpaceOnUse" gradientTransform="translate(427.684 525.115) rotate(89.8679) scale(586.487 458.153)">
  <stop stop-color="#57B8F1"/>
  <stop offset="1" stop-color="#0D037B"/>
  </radialGradient>
  <radialGradient id="paint5_radial" cx="0" cy="0" r="1" gradientUnits="userSpaceOnUse" gradientTransform="translate(427.684 525.115) rotate(89.8679) scale(586.487 458.153)">
  <stop stop-color="#6DBDED"/>
  <stop offset="1" stop-color="#786DF6"/>
  </radialGradient>
  <radialGradient id="paint6_radial" cx="0" cy="0" r="1" gradientUnits="userSpaceOnUse" gradientTransform="translate(427.684 525.115) rotate(89.8679) scale(704.555 550.554)">
  <stop stop-color="#57B8F1"/>
  <stop offset="1" stop-color="#0D037B"/>
  </radialGradient>
  <radialGradient id="paint7_radial" cx="0" cy="0" r="1" gradientUnits="userSpaceOnUse" gradientTransform="translate(427.684 525.115) rotate(89.8679) scale(704.555 550.554)">
  <stop stop-color="#6DBDED"/>
  <stop offset="1" stop-color="#786DF6"/>
  </radialGradient>
  <radialGradient id="paint8_radial" cx="0" cy="0" r="1" gradientUnits="userSpaceOnUse" gradientTransform="translate(427.803 524.817) rotate(89.8679) scale(832.426 650.405)">
  <stop stop-color="#57B8F1"/>
  <stop offset="1" stop-color="#0D037B"/>
  </radialGradient>
  <radialGradient id="paint9_radial" cx="0" cy="0" r="1" gradientUnits="userSpaceOnUse" gradientTransform="translate(427.803 524.817) rotate(89.8679) scale(832.426 650.405)">
  <stop stop-color="#6DBDED"/>
  <stop offset="1" stop-color="#786DF6"/>
  </radialGradient>
  <radialGradient id="paint10_radial" cx="0" cy="0" r="1" gradientUnits="userSpaceOnUse" gradientTransform="translate(427.803 524.817) rotate(89.8679) scale(947.4 740.239)">
  <stop stop-color="#57B8F1"/>
  <stop offset="1" stop-color="#0D037B"/>
  </radialGradient>
  <radialGradient id="paint11_radial" cx="0" cy="0" r="1" gradientUnits="userSpaceOnUse" gradientTransform="translate(427.803 524.817) rotate(89.8679) scale(947.4 740.239)">
  <stop stop-color="#6DBDED"/>
  <stop offset="1" stop-color="#786DF6"/>
  </radialGradient>
  </defs>
  </svg>